<?xml version="1.0" encoding="UTF-8"?>
<svg id="Layer_2" data-name="Layer 2" xmlns="http://www.w3.org/2000/svg" viewBox="0 0 1421.87 140.94">
  <defs>
    <style>
      .cls-1 {
        fill: #fff;
        stroke-width: 0px;
      }
    </style>
  </defs>
  <g id="Layer_1-2" data-name="Layer 1">
    <g>
      <g>
        <path class="cls-1" d="m148.46,32.14c-6.28-10.57-15.4-18.57-27.33-23.99C109.19,2.71,95.01,0,78.56,0c-12.38,0-23.46,1.54-33.23,4.62-9.78,3.08-18.04,7.61-24.76,13.57-6.73,5.97-11.84,13.32-15.33,22.05C1.74,48.97,0,59.08,0,70.56c0,15.17,3.05,28.01,9.14,38.52,6.1,10.51,15.07,18.44,26.91,23.81,11.83,5.36,26.01,8.05,42.52,8.05s30.71-2.67,42.62-8c11.9-5.33,21-13.3,27.28-23.9,6.28-10.6,9.43-23.43,9.43-38.47s-3.14-27.85-9.43-38.43Zm-40,46.12c-.4,3.19-.93,4.78-1.57,7.36-1.11,4.41-3.9,9.61-8.38,13.03-4.48,3.43-11.22,5.15-20.23,5.15-11.69,0-19.51-4.55-23.48-11.09-3.97-6.54-5.95-12.95-5.95-21.77,0-21.1,9.05-32.07,27.14-32.9v-9.78c-2.91-.75-5.05-3.38-5.05-6.52,0-3.72,3.01-6.74,6.74-6.74s6.73,3.01,6.73,6.74c0,3.14-2.15,5.77-5.05,6.52v9.75c11.83.18,19.63,3.47,23.39,9.85,2.21,3.76,3.85,7.87,4.92,12.36,1.41,5.9,1.54,12.03.79,18.04Z"/>
        <path class="cls-1" d="m164.46,138.56V1.05h89.51c11.05,1.02,20.19,3.87,27.43,8.57,7.24,4.7,12.38,11.24,15.43,19.62,2.79,10.16,3.94,17.78,3.43,22.85-.51,5.08-1.52,9.84-3.05,14.28-1.52,4.44-5.71,9.59-12.57,15.43-6.86,5.84-16,9.62-27.43,11.33h-43.04v45.42h-49.71Zm49.71-103.23v25.33h34.66c1.84,0,3.84-.68,6-2.05,2.16-1.36,3.3-4.81,3.43-10.33-.32-5.27-1.6-8.74-3.86-10.43-2.25-1.68-4.14-2.52-5.67-2.52h-34.57Z"/>
        <path class="cls-1" d="m307.39,138.56V1.05h117.89v40.95h-73.13v15.81h47.23v24h-47.23v15.81h84.75v40.95h-129.51Z"/>
        <path class="cls-1" d="m436.9,138.56V1.05h44.76l40.95,51.42V1.05h44.76v137.51h-44.76l-40.95-51.42v51.42h-44.76Z"/>
        <circle class="cls-1" cx="68.42" cy="63.83" r="6.73"/>
        <circle class="cls-1" cx="91.14" cy="63.83" r="6.73"/>
      </g>
      <g>
        <path class="cls-1" d="m627.39,139.98V2.47h81.13c10.98,0,20.66,1.46,29.04,4.38,8.38,2.92,15.46,6.86,21.24,11.81,5.78,4.95,10.59,11.65,14.43,20.09,3.84,8.44,5.76,19.43,5.76,32.95-.7,12.51-2.79,23.14-6.29,31.9-3.49,8.76-8.13,15.68-13.9,20.76-5.78,5.08-12.84,9.02-21.19,11.81-8.35,2.8-18.81,4.06-31.38,3.81h-78.85Zm45.9-103.42v69.13h26.19c5.9,0,10.67-1.25,14.28-3.76,3.62-2.51,6.57-5.71,8.86-9.62,2.29-3.9,3.74-10.93,4.38-21.09-.19-9.27-1.48-16.11-3.86-20.52-2.38-4.41-5.44-7.87-9.19-10.38-3.75-2.51-8.63-3.76-14.66-3.76h-26Z"/>
        <path class="cls-1" d="m1081.16,33.56c-6.28-10.57-15.4-18.56-27.33-24-11.94-5.42-26.12-8.13-42.57-8.13-12.37,0-23.45,1.54-33.23,4.62-9.77,3.08-18.03,7.6-24.76,13.58-6.74,5.96-11.84,13.31-15.34,22.04-3.49,8.72-5.23,18.84-5.23,30.32,0,10.04,1.34,19.06,4,27.05h-33.64l-21.23-13.14c10.66-2.54,18.86-6.03,24.56-10.48,5.72-4.44,9.71-9.97,12.01-16.57,2.28-6.59,2.15-15.99-.39-28.18-3.3-8.12-8.5-14.6-15.61-19.43-7.11-4.82-16.19-7.75-27.23-8.76h-89.51v137.5h49.71v-45.42l54.55,45.42,119.48-.22h3.71c15.72-.02,29.31-.25,40.77-5.39,11.91-5.33,21.01-13.3,27.29-23.9,6.29-10.6,9.43-23.42,9.43-38.48s-3.14-27.85-9.43-38.42Zm-205.14,26.47c-2.16,1.37-4.16,2.05-6,2.05h-34.65v-25.33h34.56c1.53,0,3.41.85,5.67,2.53,2.25,1.68,3.54,5.16,3.85,10.43-.12,5.52-1.26,8.96-3.42,10.33Zm165.14,19.65c-.4,3.18-1.2,5.95-1.84,8.52-1.11,4.41-2.56,7.02-6.83,10.6-4.32,3.61-12.5,4.73-21.51,4.73-11.68,0-19.52-2.86-23.48-9.41-3.97-6.53-5.95-12.93-5.95-21.76,0-21.47,9.38-32.45,28.14-32.93v-9.76c-2.9-.75-5.06-3.38-5.06-6.51,0-3.73,3.02-6.74,6.74-6.74s6.73,3.01,6.73,6.74c0,3.13-2.14,5.76-5.05,6.51v9.78c11.28.35,18.74,3.62,22.4,9.82,2.21,3.76,3.85,7.89,4.92,12.37,1.41,5.89,1.54,12.02.78,18.04Z"/>
        <path class="cls-1" d="m1099.47,2.47h44.76v137.51h-44.76V2.47Z"/>
        <path class="cls-1" d="m1155.43,139.98V2.47h81.13c10.98,0,20.66,1.46,29.04,4.38,8.38,2.92,15.46,6.86,21.24,11.81,5.78,4.95,10.59,11.65,14.43,20.09,3.84,8.44,5.76,19.43,5.76,32.95-.7,12.51-2.79,23.14-6.28,31.9-3.49,8.76-8.13,15.68-13.9,20.76-5.78,5.08-12.84,9.02-21.19,11.81-8.35,2.8-18.81,4.06-31.38,3.81h-78.85Zm45.9-103.42v69.13h26.19c5.9,0,10.67-1.25,14.28-3.76,3.62-2.51,6.57-5.71,8.86-9.62,2.29-3.9,3.75-10.93,4.38-21.09-.19-9.27-1.48-16.11-3.86-20.52-2.38-4.41-5.45-7.87-9.19-10.38-3.75-2.51-8.63-3.76-14.66-3.76h-26Z"/>
        <path class="cls-1" d="m1421.87,43.42h-33.52c-16.32-.51-18.73,4-7.24,13.52,20.57,18.03,30.66,35.55,30.28,52.57-.38,17.01-10.47,27.17-30.28,30.47h-73.13v-40.95h28.95c17.97.51,20.25-4.51,6.86-15.05-22.09-20.31-31.49-38.98-28.19-55.99,3.3-17.01,13.71-25.52,31.23-25.52h75.04v40.95Z"/>
        <g>
          <circle class="cls-1" cx="1000.01" cy="66.92" r="6.73"/>
          <circle class="cls-1" cx="1022.74" cy="66.92" r="6.73"/>
        </g>
      </g>
    </g>
  </g>
</svg>